<svg xmlns="http://www.w3.org/2000/svg" viewBox="0 0 32 32">
  <!-- Dark navy background with rounded corners -->
  <rect width="32" height="32" rx="7" fill="#0D1B2A"/>
  <!-- Pigeon in flight — spread wings with body and tail -->
  <path fill="#1E90FF" d="
    M 16 14
    C 14 12 10 10 6 11
    C  8 11 11 13 13 15
    C 10 14  8 16  7 18
    C  9 16 12 16 14 17
    L 13 23 L 16 21 L 19 23 L 18 17
    C 20 16 23 16 25 18
    C 24 16 22 14 19 15
    C 21 13 24 11 26 11
    C 22 10 18 12 16 14 Z
  "/>
  <!-- Eye -->
  <circle cx="16" cy="13" r="1" fill="#60A5FA"/>
</svg>
